<svg viewBox="0 0 184 184" xmlns="http://www.w3.org/2000/svg" class="block h-48 w-48">
  <path d="M182 184a2 2 0 110-4 2 2 0 010 4zm-20-20a2 2 0 110-4 2 2 0 010 4zm0 20a2 2 0 110-4 2 2 0 010 4zm-20 0a2 2 0 110-4 2 2 0 010 4zm0-20a2 2 0 110-4 2 2 0 010 4zm0-20a2 2 0 110-4 2 2 0 010 4zm-20 0a2 2 0 110-4 2 2 0 010 4zm0 20a2 2 0 110-4 2 2 0 010 4zm0 20a2 2 0 110-4 2 2 0 010 4zm0-60a2 2 0 110-4 2 2 0 010 4zm-20 20a2 2 0 110-4 2 2 0 010 4zm0 20a2 2 0 110-4 2 2 0 010 4zm0 20a2 2 0 110-4 2 2 0 010 4zm0-60a2 2 0 110-4 2 2 0 010 4zm0-20a2 2 0 110-4 2 2 0 010 4zm-20 40a2 2 0 110-4 2 2 0 010 4zm0 20a2 2 0 110-4 2 2 0 010 4zm0 20a2 2 0 110-4 2 2 0 010 4zm0-60a2 2 0 110-4 2 2 0 010 4zm0-20a2 2 0 110-4 2 2 0 010 4zm0-20a2 2 0 110-4 2 2 0 010 4zm-20 60a2 2 0 110-4 2 2 0 010 4zm0 20a2 2 0 110-4 2 2 0 010 4zm0 20a2 2 0 110-4 2 2 0 010 4zm0-60a2 2 0 110-4 2 2 0 010 4zm0-20a2 2 0 110-4 2 2 0 010 4zm0-20a2 2 0 110-4 2 2 0 010 4zm0-20a2 2 0 110-4 2 2 0 010 4zm-20 80a2 2 0 110-4 2 2 0 010 4zm0 20a2 2 0 110-4 2 2 0 010 4zm0 20a2 2 0 110-4 2 2 0 010 4zm0-60a2 2 0 110-4 2 2 0 010 4zm0-20a2 2 0 110-4 2 2 0 010 4zm0-20a2 2 0 110-4 2 2 0 010 4zm0-20a2 2 0 110-4 2 2 0 010 4zm0-20a2 2 0 110-4 2 2 0 010 4zM22 144a2 2 0 110-4 2 2 0 010 4zm0 20a2 2 0 110-4 2 2 0 010 4zm0 20a2 2 0 110-4 2 2 0 010 4zm0-60a2 2 0 110-4 2 2 0 010 4zm0-20a2 2 0 110-4 2 2 0 010 4zm0-20a2 2 0 110-4 2 2 0 010 4zm0-20a2 2 0 110-4 2 2 0 010 4zm0-20a2 2 0 110-4 2 2 0 010 4zm0-20a2 2 0 110-4 2 2 0 010 4zM2 144a2 2 0 110-4 2 2 0 010 4zm0 20a2 2 0 110-4 2 2 0 010 4zm0 20a2 2 0 110-4 2 2 0 010 4zm0-60a2 2 0 110-4 2 2 0 010 4zm0-20a2 2 0 110-4 2 2 0 010 4zm0-20a2 2 0 110-4 2 2 0 010 4zm0-20a2 2 0 110-4 2 2 0 010 4zm0-20a2 2 0 110-4 2 2 0 010 4zm0-20a2 2 0 110-4 2 2 0 010 4zM2 4a2 2 0 110-4 2 2 0 010 4z" fill="#4E68D0" fill-rule="evenodd" opacity="0.503"></path>
</svg>