<?xml version="1.0" encoding="utf-8"?>
<!-- Generator: Adobe Illustrator 24.0.0, SVG Export Plug-In . SVG Version: 6.00 Build 0)  -->
<svg version="1.1" id="Layer_1" xmlns="http://www.w3.org/2000/svg" xmlns:xlink="http://www.w3.org/1999/xlink" x="0px" y="0px"
	 viewBox="0 0 375.42 221.46" style="enable-background:new 0 0 375.42 221.46;" xml:space="preserve">
<style type="text/css">
	.st0{fill:#85754E;}
</style>
<g>
	<path class="st0" d="M179.39,4.48c-40.82,0-73.92,33.08-73.92,73.91c0,40.82,33.1,73.92,73.92,73.92
		c40.81,0,73.91-33.1,73.91-73.92C253.3,37.56,220.21,4.48,179.39,4.48z M226.45,112.01L226.45,112.01c0,3.64-2.94,6.58-6.57,6.58
		c-3.62,0-6.57-2.94-6.57-6.57h0.01V60.36c0-3.63-2.95-6.57-6.59-6.57h-25.84c-3.62,0-6.56,2.95-6.56,6.57v45.09
		c0,7.26-5.89,13.14-13.15,13.14h-15.7c-7.26,0-13.15-5.88-13.15-13.14V47.21c0-3.63,2.94-6.57,6.58-6.57
		c3.63,0,6.57,2.94,6.57,6.57v51.66c0,3.63,2.94,6.57,6.58,6.57h2.55c3.62,0,6.58-2.95,6.58-6.57V53.79
		c0-7.26,5.88-13.14,13.15-13.14h38.98h0.01c7.25,0,13.14,5.88,13.14,13.14V112.01z"/>
	<g>
		<g>
			<rect x="7.47" y="166.31" width="7.37" height="44.16"/>
			<path d="M159.35,165.75c-13.69,0-24.83,10.09-24.83,22.49c0,12.4,11.14,22.49,24.83,22.49s24.83-10.09,24.83-22.49
				C184.18,175.84,173.05,165.75,159.35,165.75z M159.35,204.31c-9.73,0-17.65-7.21-17.65-16.07c0-8.86,7.92-16.07,17.65-16.07
				c9.73,0,17.65,7.21,17.65,16.07C177,197.1,169.09,204.31,159.35,204.31z"/>
			<path d="M71.06,166.31h-7.37v33.81l-35.3-32.77c-0.7-0.67-1.6-1.03-2.55-1.03c-2.03,0-3.69,1.65-3.69,3.69v40.47h7.38v-33.84
				l35.17,32.68c0.73,0.76,1.67,1.16,2.68,1.16c2.03,0,3.68-1.66,3.68-3.69V166.31z"/>
			<path d="M127.14,166.31h-7.37v18.39H85.83V170c0-2.03-1.65-3.69-3.69-3.69c-2.03,0-3.69,1.65-3.69,3.69v40.47h7.38v-18.39h33.94
				v14.71c0,2.03,1.65,3.69,3.69,3.69c2.03,0,3.69-1.66,3.69-3.69V166.31z"/>
			<path d="M348.69,184.7h-37.63v-11.01h37.63c2.03,0,3.68-1.65,3.68-3.68c0-2.04-1.65-3.69-3.68-3.69l-37.13,0.01
				c-4.29,0.05-7.83,3.58-7.88,7.88l0,0.37l0.01,28.15c0.12,4.14,3.45,7.53,7.59,7.72l0.37,0.02h37.03c2.03,0,3.68-1.66,3.68-3.69
				c0-2.04-1.65-3.69-3.68-3.69h-37.63v-11.02h37.63c2.03,0,3.68-1.65,3.68-3.69C352.38,186.35,350.73,184.7,348.69,184.7z"/>
			<path d="M240.25,166.31h-7.37v32.75l0,0c-0.33,2.29-2.34,4.03-4.7,4.03h-24.55c-2.36,0-4.36-1.73-4.68-4.03l0,0l-0.02-0.51
				v-32.25h-7.37v36.28c0,4.35,3.53,7.88,7.88,7.88h32.94c4.34,0,7.88-3.53,7.88-7.88V166.31z"/>
			<path d="M296.31,192.58c0-4.34-3.53-7.88-7.88-7.88h-33.43v-11.02h37.79c1.95-0.09,3.52-1.71,3.52-3.68
				c0-2.03-1.65-3.69-3.69-3.69H255.5c-4.34,0-7.88,3.53-7.88,7.88v10.01c0,4.35,3.53,7.88,7.88,7.88h33.43v11.02h-37.62
				c-2.03,0-3.68,1.65-3.68,3.69c0,2.04,1.66,3.69,3.68,3.69h37.13c4.34,0,7.88-3.53,7.88-7.88V192.58z"/>
		</g>
		<g>
			<g>
				<g>
					<path d="M361.61,168.71v-7.54h1.93c0.8,0,1.42,0.19,1.88,0.58c0.46,0.37,0.69,0.89,0.69,1.52c0,0.45-0.1,0.81-0.34,1.14
						c-0.22,0.32-0.55,0.56-0.97,0.72c0.26,0.15,0.5,0.37,0.75,0.64c0.23,0.27,0.57,0.75,0.99,1.42c0.27,0.43,0.49,0.76,0.65,0.97
						l0.43,0.54h-1.33l-0.34-0.49c0-0.01-0.04-0.06-0.07-0.1l-0.22-0.29l-0.35-0.54l-0.36-0.59c-0.22-0.31-0.45-0.56-0.64-0.74
						c-0.18-0.19-0.37-0.32-0.52-0.4c-0.15-0.08-0.4-0.12-0.77-0.12h-0.28v3.28H361.61z M363.05,162.09h-0.33v2.39h0.43
						c0.56,0,0.94-0.05,1.15-0.14c0.2-0.1,0.39-0.23,0.5-0.43c0.11-0.18,0.18-0.4,0.18-0.64c0-0.23-0.07-0.44-0.2-0.64
						c-0.13-0.19-0.31-0.33-0.54-0.41C363.98,162.14,363.59,162.09,363.05,162.09z"/>
				</g>
			</g>
			<g>
				<path d="M363.84,158.5c-3.63,0-6.56,2.86-6.56,6.38c0,3.52,2.93,6.37,6.56,6.37c3.63,0,6.59-2.85,6.59-6.37
					C370.43,161.36,367.47,158.5,363.84,158.5z M363.84,170.62c-3.26,0-5.9-2.57-5.9-5.73c0-3.17,2.64-5.74,5.9-5.74
					c3.26,0,5.91,2.57,5.91,5.74C369.75,168.05,367.1,170.62,363.84,170.62z"/>
			</g>
		</g>
	</g>
</g>
</svg>
